<?xml version="1.0" encoding="utf-8"?>
<!-- Generator: Adobe Illustrator 25.0.0, SVG Export Plug-In . SVG Version: 6.00 Build 0)  -->
<svg version="1.1" id="圖層_1" xmlns="http://www.w3.org/2000/svg" xmlns:xlink="http://www.w3.org/1999/xlink" x="0px" y="0px"
	 viewBox="0 0 91 89" style="enable-background:new 0 0 91 89;" xml:space="preserve">
<style type="text/css">
	.st0{fill:#C0554B;}
	.st1{fill:#FFFFFF;}
</style>
<path class="st0" d="M90.3,40.3c0-11.9-9.5-21.5-21.3-21.5c-0.9,0-1.8,0.1-2.7,0.2C65.1,8.3,56.1,0,45.2,0C34.2,0,25.2,8.3,24,19
	c-0.9-0.1-1.8-0.2-2.7-0.2C9.6,18.8,0,28.4,0,40.3c0,8.7,5.1,16.1,12.4,19.5c-0.8,2.3-1.3,4.8-1.3,7.4c0,11.9,9.5,21.5,21.3,21.5
	c4.8,0,9.2-1.6,12.7-4.3c3.6,2.7,8,4.3,12.7,4.3c11.8,0,21.3-9.6,21.3-21.5c0-2.6-0.5-5.1-1.3-7.4C85.2,56.4,90.3,48.9,90.3,40.3z"
	/>
<path class="st1" d="M60.7,49.1c-1,0-1.9,0.5-2.5,1.4l-9-4.3c0.1-0.4,0.2-0.8,0.2-1.1c0-0.4-0.1-0.8-0.2-1.1l9.3-4.5
	c0.5,0.9,1.5,1.6,2.6,1.6c1.6,0,2.9-1.3,2.9-3c0-1.6-1.3-3-2.9-3c-1.6,0-2.9,1.3-2.9,3c0,0.2,0,0.4,0.1,0.6l-9.4,4.5
	c-0.6-0.9-1.5-1.5-2.6-1.6V31c1.4-0.2,2.5-1.4,2.5-2.9c0-1.6-1.3-3-2.9-3c-1.6,0-2.9,1.3-2.9,3c0,1.5,1.1,2.7,2.5,2.9v10.5
	c-1.1,0.1-2,0.8-2.6,1.6l-10.1-4.9c0.1-0.3,0.2-0.7,0.2-1.1c0-1.6-1.3-3-2.9-3c-1.6,0-2.9,1.3-2.9,3c0,1.6,1.3,3,2.9,3
	c0.9,0,1.8-0.5,2.3-1.1l10.2,4.9c-0.1,0.4-0.2,0.8-0.2,1.1c0,0.4,0.1,0.8,0.2,1.1l-9.7,4.7c-0.5-0.9-1.5-1.5-2.5-1.5
	c-1.6,0-2.9,1.3-2.9,3c0,1.6,1.3,3,2.9,3c1.6,0,2.9-1.3,2.9-3c0-0.2,0-0.5-0.1-0.7l9.8-4.7c0.6,0.9,1.5,1.5,2.6,1.6v10.3
	c-1.5,0.2-2.6,1.4-2.6,2.9c0,1.6,1.3,3,2.9,3c1.6,0,2.9-1.3,2.9-3c0-1.5-1.1-2.7-2.5-2.9V48.5c1.1-0.1,2-0.8,2.6-1.6l9.1,4.3
	c-0.1,0.3-0.1,0.5-0.1,0.8c0,1.6,1.3,3,2.9,3c1.6,0,2.9-1.3,2.9-3C63.6,50.4,62.3,49.1,60.7,49.1z"/>
</svg>
